<?xml version="1.0" encoding="UTF-8"?>
<svg width="174px" height="174px" viewBox="0 0 174 174" version="1.1" xmlns="http://www.w3.org/2000/svg" xmlns:xlink="http://www.w3.org/1999/xlink">
    <!-- Generator: Sketch 60 (88103) - https://sketch.com -->
    <title>jiankong</title>
    <desc>Created with Sketch.</desc>
    <g id="机械监控" stroke="none" stroke-width="1" fill="none" fill-rule="evenodd">
        <g id="jiankong">
            <circle id="椭圆形" fill="#6969E2" cx="87" cy="87" r="87"></circle>
            <path d="M100.119939,103.518997 C100.098441,102.229301 99.0467168,101.195106 97.756842,101.195285 C97.1337599,101.184723 96.5325461,101.424871 96.0882099,101.861802 C95.6438738,102.298732 95.3936558,102.895825 95.3937453,103.518997 C95.3940991,104.823849 96.4519899,105.881453 97.7568419,105.881453 C99.0616939,105.881453 100.119585,104.823849 100.119939,103.518997 L100.119939,103.518997 Z" id="路径" fill="#FFFFFF" fill-rule="nonzero"></path>
            <path d="M132.494362,88.9071828 C130.491143,88.8927132 128.796208,90.3842558 128.555868,92.3730579 L128.555868,99.8168122 L109.61171,99.8168122 C108.638104,96.6788045 106.455803,94.057209 103.546429,92.5305977 L125.917077,77.8793986 C127.511494,76.8249017 127.967033,74.6873708 126.941085,73.0744354 L122.726896,66.7334594 L124.774913,65.5125261 C125.6372,65.0209101 126.247327,64.1831846 126.450671,63.2116519 C126.654015,62.2401192 126.431059,61.2280275 125.838307,60.4318685 L113.11697,41.3695555 C109.554761,36.5843163 102.939937,35.2886293 97.8356117,38.3762998 L18.4749499,86.701626 C18.1146533,86.9368741 17.7953427,87.2295755 17.5297113,87.5680948 C16.9631754,88.3084919 16.7227872,89.2477702 16.8639889,90.1692976 C17.0051907,91.0908251 17.5157905,91.9150327 18.2780252,92.4518278 L31.6689061,102.416219 C32.2411241,102.927272 32.9897306,103.19564 33.7563081,103.164533 C34.5634179,103.1676 35.3401366,102.856912 35.9224801,102.298064 C41.9451169,97.642653 48.2887149,93.4179746 54.9060229,89.6554968 C58.7023954,87.3640865 63.418008,87.2148582 67.3516653,89.2616473 C69.5179283,90.3089906 71.4788237,91.7363091 73.141252,93.4758364 C74.2259667,94.8663693 76.1961794,95.1918827 77.6705205,94.2241503 L116.740385,70.5931839 L119.103482,74.3347535 L64.4765644,109.899358 L55.654337,96.547862 C55.1401484,95.7546324 54.3273729,95.2027086 53.4004242,95.0173189 C52.4734756,94.8319292 51.5109429,95.0287913 50.731219,95.5632384 C49.9582022,96.0760066 49.4229972,96.8772505 49.2453476,97.7877047 C49.067698,98.6981589 49.2624318,99.6418299 49.7859803,100.407586 L54.866638,108.048266 L50.9281436,110.568902 L46.7533396,103.400842 C45.7480065,101.735898 43.5982543,101.176613 41.9089915,102.140524 C40.2843522,103.156891 39.7320459,105.262558 40.6486733,106.945487 L46.6351848,117.224957 C47.2715526,118.295134 48.4227485,118.95296 49.6678255,118.957895 C50.3151033,118.972201 50.9499707,118.77898 51.4795329,118.406506 L58.8839022,113.837852 L60.6956096,116.594798 C61.3552497,117.585547 62.4594005,118.189149 63.6494804,118.209581 C64.3527252,118.232431 65.0441931,118.024991 65.6187276,117.618807 L85.2324297,104.58239 C85.5434959,108.600826 87.8115253,112.209055 91.2977111,114.231702 C92.1436201,120.529589 97.5071039,125.237349 103.861508,125.259486 L128.555868,125.259486 L128.555868,133.963559 C128.796208,135.952361 130.491143,137.443903 132.494362,137.429538 C134.497582,137.443903 136.192517,135.952361 136.432857,133.963559 L136.432857,92.3730579 C136.192517,90.3842558 134.497582,88.8927132 132.494362,88.9071828 Z M76.2526626,85.953312 C74.6368628,84.5523357 72.8503655,83.3613376 70.9356951,82.4086671 C65.0866493,79.354909 58.0671919,79.5789342 52.4247715,82.9994412 C46.566168,86.3860619 40.8992218,90.0939014 35.4498606,94.1059954 L28.6362654,89.0253376 L100.159323,45.3080499 C102.02095,44.1788989 104.434684,44.6378484 105.751985,46.3714434 L116.070841,61.7315715 L76.2526626,85.953312 Z M96.4177538,108.71781 C93.7150443,108.148262 91.8985115,105.604128 92.2373128,102.862917 C92.5761142,100.121706 94.9574088,98.0964044 97.717457,98.2020296 C99.6313272,98.2016849 101.399964,99.2225245 102.356998,100.879927 C103.314033,102.53733 103.314033,104.579434 102.356998,106.236837 C101.399964,107.894239 99.6313272,108.915079 97.717457,108.914734 L96.7328334,108.914734 L96.4177538,108.71781 Z M128.555868,117.973271 L104.924902,117.973271 C103.07901,118.013586 101.340665,117.107269 100.316863,115.57079 C104.858204,114.932115 108.619769,111.72327 109.966175,107.339337 L128.555868,107.339337 L128.555868,117.973271 Z" id="形状" fill="#FFFFFF" fill-rule="nonzero"></path>
        </g>
    </g>
</svg>